<svg width="174" height="57" viewBox="0 0 174 57" fill="none" xmlns="http://www.w3.org/2000/svg">
<path d="M24.9044 0.0447464C23.9739 0.144104 22.8508 0.461105 22.0097 0.86327C21.582 1.06672 4.73077 10.7897 4.10578 11.1965C2.94038 11.9488 1.90656 13.037 1.18758 14.2625C0.708267 15.0857 0.327633 16.1077 0.125569 17.1249L0.0174873 17.6643L0.0033898 28.2389C-0.00600857 35.899 0.0033898 38.9365 0.0409833 39.2629C0.210154 40.6965 0.69417 42.0119 1.49773 43.2231C2.2637 44.3823 3.18944 45.267 4.40183 46.0004C6.17812 47.0697 21.8123 56.0687 22.1741 56.2296C24.5425 57.2799 27.268 57.2563 29.6129 56.1586C30.0641 55.9504 47.2255 46.0288 47.7283 45.6881C48.1982 45.3711 48.8467 44.8128 49.1991 44.4296C50.6653 42.8209 51.4641 40.9994 51.638 38.8655C51.7038 38.0281 51.7038 18.9654 51.638 18.1374C51.4078 15.3034 49.9651 12.8099 47.6672 11.277C47.1456 10.9316 30.346 1.21339 29.7398 0.910583C28.3207 0.196152 26.5209 -0.125584 24.9044 0.0447464ZM29.2229 13.9029C31.5255 14.3713 33.5932 15.3081 35.2379 16.6281C35.7501 17.0398 36.8685 18.1658 37.2773 18.6816C38.1185 19.7461 38.8938 21.1371 39.3919 22.4761C39.5846 22.9918 39.6081 23.3041 39.4859 23.6637C39.3825 23.9665 39.0583 24.3213 38.7529 24.4585L38.5038 24.5721H36.6241C34.9324 24.5721 34.721 24.5626 34.5001 24.4869C34.1336 24.3592 33.9221 24.1179 33.6072 23.4744C32.9917 22.2206 32.1975 21.2649 31.1966 20.5741C30.5105 20.101 29.2793 19.6089 28.4287 19.4622C27.8367 19.3581 27.6581 19.2777 27.4278 19.0175C27.0331 18.568 27.0378 18.6106 27.0378 16.5761V14.7782L27.1647 14.5369C27.3902 14.1111 27.9165 13.7799 28.4006 13.7657C28.4804 13.7657 28.847 13.8225 29.2229 13.9029ZM23.6779 14.0685C23.9927 14.182 24.3029 14.4375 24.4579 14.7167L24.5942 14.9674V16.8127C24.5942 18.6059 24.5895 18.6626 24.4908 18.8803C24.364 19.1594 24.0397 19.5143 23.8048 19.6326C23.7061 19.6846 23.4617 19.7698 23.2643 19.8218C22.2493 20.082 20.7127 21.1087 19.8856 22.0834C18.5464 23.6637 17.8603 25.613 17.771 28.0969C17.6864 30.5904 18.2409 32.6958 19.4251 34.366C20.379 35.7144 21.7089 36.6938 23.2784 37.2048C23.8987 37.4083 24.1384 37.5644 24.3687 37.905C24.6036 38.2599 24.6271 38.4681 24.6083 40.3133C24.5942 41.9551 24.5942 41.9882 24.4814 42.2342C24.2512 42.7452 23.7531 43.048 23.1422 43.048C22.6488 43.048 21.38 42.6743 20.2992 42.2106C17.4984 41.0135 15.0972 38.6999 13.6686 35.8138C12.6489 33.7604 12.1602 31.6455 12.085 29.0196C11.9581 24.3592 13.3867 20.4795 16.3096 17.5413C18.0013 15.8427 20.0501 14.7025 22.4326 14.1395C23.0764 13.9833 23.3912 13.9691 23.6779 14.0685ZM38.5602 32.4735C38.9267 32.5823 39.2322 32.8188 39.3966 33.1169C39.5188 33.344 39.5376 33.415 39.5376 33.7509C39.5329 34.0916 39.5094 34.1862 39.3074 34.6972C38.828 35.9037 38.2077 37.0297 37.4747 38.0233C36.986 38.6857 35.7031 39.9726 35.0029 40.5026C33.767 41.4394 32.2351 42.2106 30.6797 42.6837C29.8197 42.9439 29.049 43.1095 28.5509 43.1332C28.128 43.1521 28.0763 43.1427 27.8414 43.0291C27.5312 42.8777 27.1788 42.5087 27.113 42.2626C27.0801 42.1443 27.0613 41.4441 27.0613 40.3701C27.0613 38.4444 27.0707 38.3876 27.3996 38.0091C27.6487 37.7253 27.846 37.6306 28.3583 37.5407C29.4485 37.3467 30.1815 37.0723 31.0086 36.533C32.1317 35.7996 32.9447 34.8628 33.5791 33.5711C33.8892 32.9419 34.002 32.781 34.2369 32.6343C34.5706 32.4261 34.7397 32.4072 36.5818 32.4072C38.0057 32.4025 38.3675 32.4167 38.5602 32.4735Z" fill="#64177D"/>
<path d="M71.1678 9.62575C69.0391 9.9664 67.5072 10.6666 66.323 11.8448C65.3032 12.8573 64.697 14.0306 64.4903 15.4169C64.401 16.0036 64.401 17.0918 64.4903 17.6217C64.7205 18.9749 65.2891 19.9212 66.4404 20.8532C67.8173 21.9698 69.2975 22.6039 72.1265 23.2994C75.8059 24.203 76.7082 24.4727 77.695 24.9506C78.9309 25.5515 79.1799 25.8779 79.1094 26.8006C79.0718 27.3257 78.9403 27.6569 78.6489 27.9787C78.1649 28.5133 77.3942 28.8776 76.4262 29.029C75.5663 29.1662 75.4723 29.1899 75.2796 29.3271C75.1762 29.4075 75.0305 29.5589 74.9601 29.6678L74.8285 29.8617L74.8144 31.2717C74.805 32.2038 74.8191 32.7479 74.852 32.8756C74.9084 33.0885 75.2138 33.4576 75.4159 33.5617C75.6461 33.6847 75.9798 33.6894 76.6377 33.5948C78.2213 33.3582 79.4901 32.9608 80.4628 32.393C80.9985 32.0808 81.8115 31.442 82.178 31.0493C83.2964 29.8428 83.8368 28.3714 83.8462 26.5119C83.8509 25.6745 83.7945 25.2723 83.5878 24.6336C83.0333 22.9067 81.5953 21.5819 79.194 20.5741C78.3623 20.224 77.0371 19.836 74.5935 19.2257C71.1866 18.374 70.0823 17.9671 69.3821 17.3142C69.119 17.0682 69.025 16.8742 69.025 16.5998C69.025 16.2922 69.1613 15.6961 69.2834 15.4879C69.6265 14.887 70.7167 14.2767 71.68 14.1442C71.8633 14.1205 72.0654 14.0779 72.1312 14.0543C72.3379 13.9691 72.5588 13.7468 72.6716 13.5007C72.7796 13.2689 72.7843 13.2358 72.7843 11.8542C72.7843 10.3023 72.7749 10.2361 72.4883 9.93801C72.164 9.59736 71.8304 9.51692 71.1678 9.62575Z" fill="#64177D"/>
<path d="M87.5116 9.68723C87.286 9.79132 87.0182 10.0563 86.896 10.2976C86.8208 10.4537 86.8114 10.624 86.7973 11.7359C86.7879 12.5544 86.802 13.0938 86.8349 13.2594C86.896 13.5669 87.0934 13.8556 87.3612 14.0306L87.5586 14.1631L92.9156 14.1868C97.7417 14.2104 98.3197 14.2246 98.6956 14.2956C100.571 14.6646 101.463 15.7528 101.463 17.688C101.468 18.4686 101.379 18.9228 101.111 19.4859C100.782 20.1766 100.157 20.6876 99.3112 20.9526C98.5547 21.1844 98.4466 21.1892 92.9391 21.1892C87.2531 21.1892 87.5445 21.175 87.2202 21.4872C87.1309 21.5724 87.0041 21.7333 86.9383 21.8515L86.8114 22.0645V27.3163V32.5681L86.9148 32.7573C87.0323 32.9797 87.2625 33.2068 87.4928 33.3298C87.6432 33.4102 87.7841 33.4197 89.1375 33.4197C90.4909 33.4197 90.6318 33.4102 90.7822 33.3298C91.0125 33.2068 91.2427 32.9797 91.3602 32.7573C91.4636 32.5681 91.4636 32.5397 91.4871 29.2183C91.5106 25.9678 91.5153 25.8637 91.5999 25.7975C91.6798 25.7407 92.2155 25.7313 94.9598 25.7313C96.8677 25.7313 98.456 25.7123 98.7708 25.6792C101.435 25.4379 103.55 24.2693 104.842 22.3294C105.495 21.3406 105.838 20.4274 106.04 19.131C106.163 18.3314 106.153 16.8552 106.012 16.0651C105.712 14.3476 104.983 12.9377 103.813 11.8258C102.516 10.5862 100.801 9.8481 98.752 9.64938C98.4231 9.61626 96.346 9.59734 92.972 9.59734C87.9439 9.59734 87.6949 9.60207 87.5116 9.68723Z" fill="#64177D"/>
<path d="M116.205 9.63995C116.012 9.70146 115.81 9.81974 115.707 9.93802C115.65 9.9948 114.151 13.4629 112.37 17.6407C108.898 25.8023 109.006 25.5278 109.17 25.9347C109.292 26.2233 109.48 26.4268 109.734 26.5593L109.974 26.6776H111.567C113.334 26.6776 113.423 26.6634 113.719 26.3984C113.893 26.2375 114.043 25.9016 115.866 21.544C118.005 16.4342 117.915 16.6234 118.216 16.789C118.324 16.8553 118.587 17.4514 120.213 21.3311C122.84 27.6238 123.207 28.5086 123.207 28.6079C123.207 28.6553 123.178 28.7357 123.141 28.7877C123.075 28.8776 122.929 28.8776 115.561 28.9013L108.052 28.9249L107.831 29.0574C107.709 29.1284 107.563 29.2514 107.507 29.3318C107.45 29.4123 107.149 30.0652 106.839 30.7844C106.336 31.953 106.275 32.1233 106.271 32.3788C106.266 32.6911 106.393 32.9703 106.651 33.2163C106.957 33.5144 106.064 33.4907 118.094 33.4907H129.057L129.297 33.3772C129.682 33.1974 129.922 32.8047 129.926 32.3457C129.926 32.1565 129.273 30.5904 125.227 21.0851C120.937 10.9978 120.514 10.0327 120.345 9.87179C120.246 9.77716 120.082 9.6778 119.983 9.64941C119.771 9.5879 116.393 9.58317 116.205 9.63995Z" fill="#64177D"/>
<path d="M143.484 9.68724C143.202 9.81499 142.915 10.1273 142.854 10.3733C142.783 10.6572 142.783 13.1269 142.854 13.4061C142.91 13.6332 143.164 13.9644 143.361 14.0637C143.427 14.0969 143.662 14.1631 143.878 14.2057C145.109 14.4564 146.087 14.9485 146.886 15.7245C147.398 16.2212 147.746 16.7086 148.15 17.4845C148.653 18.4497 148.681 18.4592 150.781 18.4355C152.304 18.4213 152.389 18.4071 152.689 18.1232C152.877 17.9435 153.046 17.5649 153.046 17.3142C153.046 16.9451 152.478 15.6298 151.928 14.7356C150.302 12.0908 147.76 10.3449 144.588 9.69198C144.019 9.57369 143.728 9.57369 143.484 9.68724Z" fill="#64177D"/>
<path d="M156.637 9.6494C156.43 9.71091 156.077 10.0374 155.965 10.2739C155.871 10.4679 155.866 10.5531 155.866 11.9678V13.4534L156.026 13.6663C156.11 13.7846 156.27 13.9407 156.383 14.0212L156.585 14.1631L164.874 14.1773C173.093 14.1868 173.164 14.1868 173.347 14.0921C173.568 13.9786 173.742 13.8035 173.878 13.548C173.977 13.3635 173.981 13.3115 173.981 11.8921C173.981 10.4679 173.977 10.4206 173.878 10.2314C173.746 9.98532 173.431 9.70617 173.211 9.64467C172.994 9.58316 156.843 9.58789 156.637 9.6494Z" fill="#64177D"/>
<path d="M75.5616 9.7535C75.336 9.8434 75.054 10.0942 74.9319 10.3213C74.8332 10.5105 74.8285 10.5815 74.8144 11.8353C74.805 12.6444 74.8191 13.2405 74.8473 13.3872C74.9554 13.8934 75.2702 14.1726 75.8717 14.3003C76.8867 14.5132 77.9111 15.1946 78.2636 15.8948C78.3294 16.0367 78.4469 16.3869 78.5173 16.6707C78.663 17.2574 78.7288 17.4183 78.9215 17.6123C79.2081 17.9009 79.2081 17.9009 80.787 17.9151C82.4036 17.934 82.6056 17.9056 82.9158 17.6312C83.2541 17.3331 83.334 17.0256 83.2588 16.3159C82.9158 13.0844 80.538 10.6714 76.8961 9.85759C76.2147 9.70619 75.7777 9.67307 75.5616 9.7535Z" fill="#64177D"/>
<path d="M138.925 9.87651C138.131 10.0847 137.577 10.2834 136.848 10.6383C133.559 12.228 131.28 15.4642 130.706 19.3676C130.354 21.738 130.561 24.2504 131.27 26.299C132.497 29.857 135.316 32.535 138.798 33.4481C139.522 33.6374 139.973 33.6279 140.274 33.415C140.382 33.3393 140.532 33.1974 140.612 33.098L140.758 32.9135L140.772 31.3048C140.786 29.7529 140.782 29.6867 140.688 29.4927C140.523 29.152 140.298 28.9865 139.729 28.7877C139.048 28.5512 138.615 28.343 138.089 27.9881C137.022 27.269 136.078 25.9773 135.641 24.6336C135.053 22.831 135.053 20.5031 135.641 18.7336C135.852 18.0949 136.289 17.2432 136.67 16.737C137.417 15.7339 138.676 14.8208 139.724 14.518C139.898 14.4659 140.128 14.3713 140.227 14.3051C140.443 14.1631 140.669 13.8556 140.739 13.6237C140.767 13.5149 140.782 12.9093 140.772 11.9536L140.758 10.4585L140.617 10.255C140.265 9.7535 139.795 9.64941 138.925 9.87651Z" fill="#64177D"/>
<path d="M156.547 19.2919C156.308 19.4007 155.979 19.7745 155.913 20.0016C155.885 20.0962 155.866 20.7728 155.866 21.5677C155.866 22.8215 155.875 22.9824 155.955 23.1527C156.063 23.394 156.435 23.7252 156.66 23.7914C156.768 23.8198 159.442 23.8387 164.329 23.8387H171.829L172.012 23.7015C172.275 23.5076 172.44 23.323 172.52 23.1196C172.628 22.8594 172.628 20.1814 172.52 19.9212C172.44 19.7177 172.275 19.5332 172.012 19.3392L171.829 19.202H164.282C157.064 19.202 156.726 19.2067 156.547 19.2919Z" fill="#64177D"/>
<path d="M64.3869 24.979C64.1566 25.0925 63.9217 25.3433 63.8277 25.5704C63.6444 26.0104 63.8935 27.5292 64.3305 28.6316C65.1952 30.8317 67.0513 32.4498 69.6077 33.2257C70.369 33.4623 71.2571 33.6326 71.6894 33.6326C72.0184 33.6326 72.0842 33.6184 72.2815 33.4954C72.399 33.415 72.5588 33.2636 72.6293 33.1548L72.7608 32.9513V31.3663V29.7766L72.6058 29.5305C72.4084 29.2183 72.2486 29.1236 71.7505 29.0054C69.8849 28.5606 68.8652 27.69 68.6209 26.3416C68.4564 25.4474 68.3859 25.2865 68.0241 25.0358L67.8267 24.9033L66.2055 24.8891C64.636 24.8796 64.5796 24.8796 64.3869 24.979Z" fill="#64177D"/>
<path d="M148.921 24.9364C148.624 25.0358 148.375 25.3149 148.112 25.8543C147.765 26.5545 147.379 27.0797 146.815 27.6144C146.04 28.3572 145.232 28.7972 144.273 29.0054C143.413 29.1899 143.328 29.223 143.108 29.4407C142.99 29.5637 142.882 29.7245 142.854 29.8286C142.821 29.9422 142.802 30.5715 142.802 31.4373V32.8567L142.92 33.0933C143.079 33.4008 143.347 33.6137 143.672 33.68C143.878 33.7225 144.005 33.7178 144.339 33.6563C146.655 33.2257 148.653 32.218 150.199 30.7039C151.139 29.7766 151.782 28.8918 152.365 27.6948C152.99 26.4221 153.098 25.982 152.901 25.542C152.783 25.2771 152.652 25.1351 152.412 25.0074C152.233 24.908 152.163 24.9033 150.65 24.8938C149.63 24.8891 149.019 24.9033 148.921 24.9364Z" fill="#64177D"/>
<path d="M156.618 28.9533C156.402 29.0385 156.162 29.2325 156.012 29.4454L155.866 29.6488V31.1345C155.866 32.7999 155.875 32.8283 156.223 33.169C156.585 33.5191 155.847 33.4907 164.935 33.4907C173.967 33.4907 173.29 33.5143 173.619 33.1926C173.709 33.1074 173.821 32.956 173.878 32.852C173.977 32.6722 173.981 32.5917 173.995 31.3237C174.014 29.7435 173.991 29.6015 173.643 29.2277C173.511 29.0858 173.366 28.977 173.258 28.9486C173.027 28.8823 156.782 28.8871 156.618 28.9533Z" fill="#64177D"/>
<path d="M67.5213 39.6178C66.1256 39.9159 65.0824 40.8432 64.6642 42.1491C64.2929 43.3083 64.4433 44.6425 65.0495 45.6219C65.5664 46.4546 66.3559 47.0318 67.3098 47.2637C68.0899 47.4529 68.8229 47.4293 69.509 47.188C69.9742 47.0271 70.3079 46.8095 70.7355 46.4026L71.1114 46.043L70.8953 45.9152C70.7825 45.849 70.6462 45.7922 70.6039 45.7922C70.5569 45.7922 70.4019 45.8963 70.2562 46.024C69.8615 46.3694 69.5607 46.5398 69.1284 46.677C68.7806 46.7858 68.6867 46.7953 68.165 46.7763C67.7045 46.7574 67.526 46.729 67.2487 46.6297C66.5767 46.3931 66.0692 46.0004 65.6933 45.4374C65.2704 44.7939 65.0965 44.1268 65.1388 43.2609C65.1811 42.3336 65.4724 41.657 66.088 41.0325C66.6472 40.4647 67.2581 40.1903 68.1087 40.1335C68.8417 40.0815 69.6641 40.3748 70.2421 40.8953C70.4019 41.0372 70.5616 41.1555 70.5945 41.1555C70.6274 41.1555 70.712 41.1129 70.7825 41.0561C70.8718 40.9852 70.9047 40.9142 70.9047 40.8006C70.9047 40.6682 70.8624 40.6019 70.6509 40.4174C70.2891 40.0957 69.8615 39.8496 69.4244 39.703C68.9592 39.5516 68.0194 39.509 67.5213 39.6178Z" fill="#64177D"/>
<path d="M80.397 39.6225C79.6498 39.7834 79.0718 40.1193 78.5361 40.6965C77.5728 41.7327 77.2721 43.4029 77.7702 44.9169C78.3294 46.6155 79.9224 47.5996 81.7269 47.3583C83.6488 47.0981 84.9082 45.5509 84.9082 43.4502C84.9082 42.5607 84.6968 41.709 84.2409 40.7817L84.0013 40.2896L83.6206 40.1146C82.5445 39.6131 81.304 39.4238 80.397 39.6225ZM81.835 40.1856C83.0051 40.4127 83.8462 41.2785 84.1376 42.5512C84.2597 43.0811 84.2456 43.9801 84.1141 44.4816C83.8133 45.6171 82.9957 46.4735 81.9853 46.7148C81.5906 46.8094 80.7917 46.8047 80.4299 46.7101C79.4525 46.4546 78.6677 45.6597 78.3623 44.6188C78.32 44.4816 78.2636 44.1646 78.2354 43.9091C78.1132 42.7641 78.4468 41.6523 79.1282 40.9662C79.8143 40.2707 80.8011 39.9868 81.835 40.1856Z" fill="#64177D"/>
<path d="M109.814 39.6225C109.133 39.7692 108.597 40.0531 108.108 40.5309C107.408 41.217 107.032 42.097 106.961 43.2184C106.863 44.8933 107.652 46.3742 108.992 47.0224C110.105 47.557 111.515 47.5002 112.568 46.8757C112.92 46.6675 113.55 46.0335 113.757 45.6881C114.128 45.0447 114.325 44.2876 114.325 43.4691C114.325 42.5654 114.114 41.7138 113.663 40.7864L113.423 40.3038L113.042 40.1193C111.994 39.6178 110.726 39.4238 109.814 39.6225ZM111.506 40.2376C112.685 40.5877 113.442 41.5624 113.62 42.9534C113.85 44.7371 112.925 46.3221 111.426 46.7101C111.087 46.8 110.242 46.8095 109.917 46.7338C109.795 46.7006 109.518 46.5965 109.306 46.4972C108.992 46.3505 108.841 46.2417 108.573 45.972C107.934 45.3191 107.638 44.5195 107.643 43.4265C107.648 42.7168 107.746 42.2674 108.033 41.6807C108.428 40.8716 109.241 40.2897 110.166 40.143C110.434 40.1004 111.247 40.1572 111.506 40.2376Z" fill="#64177D"/>
<path d="M169.94 39.5941C168.276 39.8544 167.073 41.0088 166.745 42.6648C166.646 43.1521 166.669 44.0889 166.792 44.5621C166.979 45.2718 167.37 45.9294 167.886 46.412C168.643 47.1123 169.447 47.4151 170.551 47.4103C171.213 47.4103 171.665 47.311 172.243 47.0271C172.727 46.7953 173.314 46.3269 173.389 46.1187C173.455 45.92 173.46 43.9233 173.394 43.7246C173.366 43.6442 173.29 43.559 173.225 43.5259C173.145 43.4928 172.6 43.4739 171.491 43.4739H169.869V43.7814V44.0889H171.209C172.487 44.0889 172.553 44.0937 172.642 44.1836C172.727 44.2687 172.736 44.3397 172.736 45.092V45.901L172.557 46.0714C172.083 46.5161 171.406 46.7858 170.664 46.8189C169.696 46.8662 168.953 46.5824 168.291 45.9152C167.595 45.2197 167.294 44.3823 167.346 43.2893C167.384 42.3573 167.689 41.6381 168.291 41.0372C168.883 40.4458 169.606 40.1619 170.499 40.1619C171.298 40.1619 171.956 40.389 172.553 40.8716C172.712 41.0041 172.877 41.1082 172.919 41.1082C173.004 41.1082 173.347 40.8858 173.347 40.8338C173.347 40.7155 172.595 40.1193 172.205 39.9301C171.613 39.6367 170.617 39.4901 169.94 39.5941Z" fill="#64177D"/>
<path d="M91.4213 39.7408C91.3555 39.7929 91.2991 39.878 91.2991 39.9301C91.2991 40.1099 93.3245 47.0933 93.3996 47.1738C93.5171 47.3062 93.9307 47.2921 94.0575 47.1501C94.128 47.0791 94.3771 46.2606 94.894 44.3965C95.3028 42.9392 95.6694 41.7091 95.7069 41.6617C95.7445 41.6192 95.8338 41.5813 95.9043 41.5813C96.1816 41.5813 96.1863 41.5955 96.9663 44.3965C97.4644 46.1896 97.737 47.0791 97.7981 47.1501C97.9203 47.2873 98.2868 47.3015 98.4419 47.1738C98.5218 47.1075 98.7426 46.3884 99.5509 43.5448C100.105 41.5955 100.557 39.9679 100.557 39.9348C100.557 39.8307 100.331 39.6415 100.209 39.6415C99.9221 39.6415 99.908 39.6746 99.1467 42.4803C98.7567 43.9233 98.4184 45.1724 98.3902 45.2528C98.2962 45.5509 97.9015 45.5651 97.7887 45.2765C97.7605 45.2103 97.408 43.9517 97.0086 42.4803C96.4494 40.4552 96.252 39.7881 96.1769 39.7219C96.0641 39.6273 95.9137 39.6178 95.7398 39.6982C95.5942 39.7645 95.6553 39.5847 94.7389 42.8588C94.1139 45.0872 94.034 45.3427 93.9213 45.4279C93.8132 45.5083 93.7756 45.5131 93.6534 45.4657C93.5782 45.4326 93.4983 45.3711 93.4842 45.3285C93.4654 45.2812 93.1177 44.0227 92.7042 42.5276C91.9241 39.6651 91.9147 39.6415 91.6515 39.6415C91.5952 39.6415 91.4918 39.684 91.4213 39.7408Z" fill="#64177D"/>
<path d="M121.421 39.7456C121.327 39.8496 121.327 39.8922 121.327 43.4313C121.327 46.9798 121.327 47.0129 121.426 47.1359C121.543 47.2873 121.755 47.3015 121.891 47.1643C121.98 47.0744 121.985 47.0082 121.985 45.6976V44.3208L122.102 44.2072C122.21 44.0937 122.234 44.0889 122.901 44.0889C123.282 44.0889 123.629 44.1126 123.676 44.1362C123.728 44.1646 124.222 44.8649 124.785 45.6929C125.457 46.6959 125.833 47.2116 125.904 47.2306C126.04 47.2684 126.59 47.2684 126.59 47.2306C126.59 47.2022 124.964 44.827 124.696 44.458C124.626 44.3586 124.616 44.3066 124.649 44.2025C124.687 44.0889 124.753 44.0416 125.039 43.9375C125.88 43.6253 126.332 43.0717 126.458 42.1964C126.599 41.2359 126.144 40.2897 125.359 39.9064C124.856 39.6604 124.673 39.6415 123.033 39.6415C121.534 39.6415 121.52 39.6415 121.421 39.7456ZM124.903 40.3796C125.41 40.6209 125.678 40.9615 125.791 41.5103C125.941 42.2342 125.603 42.996 124.997 43.3083C124.659 43.4786 124.306 43.5212 123.197 43.5212C122.234 43.5212 122.168 43.5164 122.079 43.4265C121.989 43.3366 121.985 43.2704 121.985 41.8652C121.985 40.4079 121.985 40.4032 122.093 40.3039C122.192 40.2045 122.229 40.2045 123.395 40.2187L124.593 40.2329L124.903 40.3796Z" fill="#64177D"/>
<path d="M133.611 39.7597L133.498 39.8733L133.507 43.5022C133.521 47.0271 133.526 47.1265 133.611 47.1927C133.742 47.2873 133.987 47.2779 134.076 47.1738C134.146 47.0981 134.156 46.9372 134.156 45.8916C134.156 45.1109 134.174 44.6614 134.207 44.5952C134.236 44.5384 134.4 44.3492 134.569 44.1694C135.072 43.6536 134.926 43.559 136.651 45.5178C137.459 46.4357 138.145 47.2069 138.178 47.2258C138.216 47.2447 138.404 47.2589 138.601 47.2495L138.963 47.2353L137.652 45.7686C136.933 44.9595 136.167 44.1031 135.955 43.8618C135.636 43.507 135.565 43.3982 135.565 43.2751C135.565 43.1379 135.749 42.9156 137.083 41.4204C137.915 40.4884 138.606 39.703 138.611 39.684C138.634 39.6273 137.976 39.632 137.868 39.6888C137.821 39.7124 137.083 40.531 136.223 41.5103C134.752 43.1805 134.649 43.2846 134.503 43.2846C134.405 43.2846 134.306 43.2467 134.25 43.19C134.16 43.1001 134.156 43.0338 134.156 41.4725C134.156 40.583 134.137 39.8307 134.118 39.8023C134.071 39.7314 133.897 39.6415 133.803 39.6415C133.761 39.6415 133.676 39.6935 133.611 39.7597Z" fill="#64177D"/>
<path d="M145.786 39.6982C145.734 39.7266 145.678 39.7739 145.659 39.8023C145.64 39.8307 145.622 41.4867 145.622 43.4786C145.622 46.9277 145.626 47.1075 145.706 47.1785C145.814 47.2779 146.04 47.2826 146.167 47.1927C146.256 47.1265 146.256 47.0318 146.256 43.4738V39.8212L146.143 39.7313C146.021 39.6273 145.922 39.6225 145.786 39.6982Z" fill="#64177D"/>
<path d="M159.137 39.7408L159.014 39.8354V42.5512C159.014 45.0636 159.01 45.267 158.934 45.3569C158.822 45.4847 158.685 45.5178 158.554 45.4468C158.493 45.4184 157.497 44.1126 156.341 42.5512L154.24 39.7124L153.991 39.6982C153.526 39.6698 153.563 39.3197 153.563 43.4786V47.1123L153.667 47.2116C153.803 47.3394 153.967 47.3299 154.104 47.188L154.221 47.0744V44.3255C154.221 41.6428 154.221 41.5813 154.315 41.4867C154.437 41.3637 154.611 41.3684 154.752 41.4961C154.818 41.5576 155.763 42.8304 156.853 44.3255C157.943 45.8206 158.892 47.1028 158.958 47.1738C159.122 47.3488 159.39 47.3583 159.559 47.188L159.672 47.0744L159.663 43.4455L159.649 39.8212L159.536 39.7313C159.395 39.6178 159.292 39.6178 159.137 39.7408Z" fill="#64177D"/>
</svg>
