<svg width="225" height="226" viewBox="0 0 225 226" fill="none" xmlns="http://www.w3.org/2000/svg">
<g clip-path="url(#clip0_7_368)">
<path d="M21.6373 190.385L19.6557 182.559C16.1422 181.067 12.5476 179.776 8.88886 178.69L8.63874 182.328L7.62437 178.32C3.0869 177.021 0 176.45 0 176.45C0 176.45 4.16863 192.328 12.9149 204.467L23.1051 206.26L15.1886 207.403C16.2888 208.729 17.4712 209.984 18.7286 211.161C31.4505 222.987 45.6206 228.413 50.378 223.28C55.1353 218.147 48.6788 204.399 35.9569 192.575C32.013 188.909 27.0587 185.967 22.0992 183.651L21.6373 190.385Z" fill="#E0D1E5"/>
<path d="M40.4826 181.884L42.8261 174.158C40.5883 171.063 38.1779 168.097 35.6065 165.273L33.5149 168.258L34.7148 164.302C31.5004 160.842 29.153 158.755 29.153 158.755C29.153 158.755 24.5267 174.506 25.7471 189.425L33.5451 196.235L26.1769 193.115C26.4347 194.82 26.7993 196.507 27.2686 198.166C32.0553 214.874 41.3849 226.854 48.1067 224.923C54.8284 222.992 56.3974 207.881 51.6107 191.172C50.1269 185.992 47.404 180.909 44.354 176.36L40.4826 181.884Z" fill="#E0D1E5"/>
<path d="M157.004 53.5395H155.768V19.6279C155.768 17.0503 155.261 14.498 154.276 12.1166C153.291 9.73526 151.847 7.5715 150.027 5.74888C148.207 3.92626 146.047 2.48048 143.669 1.49408C141.291 0.507689 138.742 0 136.168 0H64.4233C59.2251 0 54.2399 2.06793 50.5643 5.74888C46.8887 9.42983 44.8237 14.4223 44.8237 19.6279V205.673C44.8237 208.251 45.3307 210.803 46.3156 213.184C47.3006 215.566 48.7443 217.729 50.5643 219.552C52.3843 221.375 54.5449 222.82 56.9228 223.807C59.3008 224.793 61.8494 225.301 64.4233 225.301H136.168C141.366 225.301 146.351 223.233 150.027 219.552C153.703 215.871 155.767 210.879 155.767 205.673V77.6785H157.004L157.004 53.5395Z" fill="#64177D" fill-opacity="0.2"/>
<path d="M136.959 5.1046H127.595C128.025 6.16206 128.19 7.30937 128.073 8.44544C127.957 9.58152 127.563 10.6715 126.927 11.6193C126.291 12.5672 125.432 13.3438 124.425 13.8807C123.419 14.4177 122.296 14.6985 121.156 14.6985H80.0538C78.9135 14.6984 77.7907 14.4175 76.7843 13.8805C75.7779 13.3435 74.9188 12.5669 74.2827 11.6191C73.6466 10.6712 73.2531 9.58132 73.1367 8.44529C73.0203 7.30926 73.1847 6.16201 73.6154 5.1046H64.8685C60.9866 5.1046 57.2637 6.64891 54.5188 9.39781C51.7738 12.1467 50.2318 15.875 50.2318 19.7625V205.537C50.2318 209.425 51.7738 213.153 54.5188 215.902C57.2637 218.651 60.9866 220.195 64.8685 220.195H136.959C140.841 220.195 144.564 218.651 147.309 215.902C150.054 213.153 151.596 209.425 151.596 205.537V19.7622C151.596 15.8748 150.054 12.1465 147.309 9.3977C144.564 6.64887 140.841 5.1046 136.959 5.1046Z" fill="white"/>
<path d="M91.7275 79.1079C91.7273 77.8093 92.0686 76.5336 92.7172 75.4092C93.3657 74.2847 94.2986 73.3511 95.4219 72.7025C94.2991 72.0531 93.0255 71.7111 91.7289 71.711C90.4323 71.7109 89.1586 72.0525 88.0357 72.7017C86.9128 73.3508 85.9803 74.2845 85.332 75.409C84.6837 76.5334 84.3423 77.809 84.3423 79.1074C84.3423 80.4059 84.6837 81.6814 85.332 82.8059C85.9803 83.9303 86.9128 84.8641 88.0357 85.5132C89.1586 86.1623 90.4323 86.504 91.7289 86.5039C93.0255 86.5037 94.2991 86.1618 95.4219 85.5124C94.2986 84.8638 93.3658 83.9305 92.7173 82.8062C92.0687 81.6819 91.7274 80.4063 91.7275 79.1079Z" fill="#64177D"/>
<path d="M101.012 79.1079C101.012 77.8093 101.353 76.5336 102.002 75.4091C102.651 74.2847 103.583 73.3511 104.707 72.7025C103.584 72.0531 102.31 71.7111 101.014 71.711C99.7172 71.7109 98.4435 72.0525 97.3206 72.7017C96.1977 73.3508 95.2652 74.2845 94.6168 75.409C93.9685 76.5334 93.6272 77.809 93.6272 79.1074C93.6272 80.4059 93.9685 81.6814 94.6168 82.8059C95.2652 83.9303 96.1977 84.8641 97.3206 85.5132C98.4435 86.1623 99.7172 86.504 101.014 86.5039C102.31 86.5037 103.584 86.1618 104.707 85.5124C103.584 84.8638 102.651 83.9305 102.002 82.8062C101.354 81.6819 101.012 80.4063 101.012 79.1079Z" fill="#64177D"/>
<path d="M110.086 86.504C114.165 86.504 117.472 83.1925 117.472 79.1076C117.472 75.0226 114.165 71.7112 110.086 71.7112C106.007 71.7112 102.701 75.0226 102.701 79.1076C102.701 83.1925 106.007 86.504 110.086 86.504Z" fill="#64177D"/>
<path d="M122.43 102.21H79.3841C78.9743 102.209 78.5814 102.046 78.2917 101.756C78.0019 101.465 77.8389 101.072 77.8384 100.662V57.5536C77.8389 57.1432 78.0019 56.7497 78.2917 56.4595C78.5814 56.1693 78.9743 56.0061 79.3841 56.0056H122.43C122.84 56.0061 123.233 56.1693 123.522 56.4595C123.812 56.7497 123.975 57.1432 123.976 57.5536V100.662C123.975 101.072 123.812 101.465 123.522 101.756C123.233 102.046 122.84 102.209 122.43 102.21ZM79.3841 56.6252C79.1382 56.6254 78.9025 56.7233 78.7286 56.8974C78.5548 57.0716 78.457 57.3076 78.4568 57.5539V100.662C78.457 100.908 78.5548 101.144 78.7286 101.318C78.9025 101.492 79.1382 101.59 79.3841 101.591H122.43C122.676 101.59 122.911 101.492 123.085 101.318C123.259 101.144 123.357 100.908 123.357 100.662V57.5539C123.357 57.3076 123.259 57.0716 123.085 56.8974C122.911 56.7233 122.676 56.6254 122.43 56.6252H79.3841Z" fill="#64177D"/>
<path d="M132.041 135.254H66.0221V135.873H132.041V135.254Z" fill="#64177D"/>
<path d="M68.1071 131.388C69.2585 131.388 70.192 130.453 70.192 129.3C70.192 128.147 69.2585 127.212 68.1071 127.212C66.9556 127.212 66.0221 128.147 66.0221 129.3C66.0221 130.453 66.9556 131.388 68.1071 131.388Z" fill="#64177D"/>
<path d="M132.041 156.132H66.0221V156.751H132.041V156.132Z" fill="#64177D"/>
<path d="M68.1071 152.266C69.2585 152.266 70.192 151.331 70.192 150.178C70.192 149.025 69.2585 148.09 68.1071 148.09C66.9556 148.09 66.0221 149.025 66.0221 150.178C66.0221 151.331 66.9556 152.266 68.1071 152.266Z" fill="#64177D"/>
<path d="M130.833 179.907H109.969C109.609 179.907 109.263 179.763 109.008 179.508C108.754 179.253 108.61 178.907 108.61 178.546V171.223C108.61 170.862 108.754 170.516 109.008 170.261C109.263 170.005 109.609 169.862 109.969 169.861H130.833C131.193 169.862 131.539 170.005 131.794 170.261C132.049 170.516 132.192 170.862 132.192 171.223V178.546C132.192 178.907 132.049 179.253 131.794 179.508C131.539 179.763 131.193 179.907 130.833 179.907Z" fill="#64177D"/>
<path d="M74.908 131.388C76.0594 131.388 76.9929 130.453 76.9929 129.3C76.9929 128.147 76.0594 127.212 74.908 127.212C73.7565 127.212 72.823 128.147 72.823 129.3C72.823 130.453 73.7565 131.388 74.908 131.388Z" fill="#64177D"/>
<path d="M81.7089 131.388C82.8604 131.388 83.7938 130.453 83.7938 129.3C83.7938 128.147 82.8604 127.212 81.7089 127.212C80.5574 127.212 79.624 128.147 79.624 129.3C79.624 130.453 80.5574 131.388 81.7089 131.388Z" fill="#64177D"/>
<path d="M74.908 152.266C76.0594 152.266 76.9929 151.331 76.9929 150.178C76.9929 149.025 76.0594 148.09 74.908 148.09C73.7565 148.09 72.823 149.025 72.823 150.178C72.823 151.331 73.7565 152.266 74.908 152.266Z" fill="#64177D"/>
<path d="M81.7089 152.266C82.8604 152.266 83.7938 151.331 83.7938 150.178C83.7938 149.025 82.8604 148.09 81.7089 148.09C80.5574 148.09 79.624 149.025 79.624 150.178C79.624 151.331 80.5574 152.266 81.7089 152.266Z" fill="#64177D"/>
<path d="M224.16 226H7.27397C6.80968 226 6.43359 225.835 6.43359 225.632C6.43359 225.428 6.80968 225.263 7.27397 225.263H224.16C224.624 225.263 225 225.428 225 225.632C225 225.835 224.624 226 224.16 226Z" fill="#3F3D56"/>
<path d="M170.575 148.068C170.723 148.136 170.865 148.216 171.001 148.306L184.55 142.515L185.033 138.941L190.447 138.908L190.127 147.105L172.244 151.841C172.207 151.966 172.162 152.088 172.109 152.207C171.851 152.759 171.435 153.223 170.914 153.54C170.393 153.856 169.791 154.012 169.182 153.987C168.573 153.961 167.985 153.757 167.492 153.398C166.999 153.039 166.623 152.543 166.411 151.971C166.199 151.399 166.161 150.777 166.301 150.183C166.44 149.589 166.752 149.05 167.197 148.633C167.642 148.216 168.2 147.94 168.801 147.839C169.402 147.739 170.019 147.818 170.575 148.068Z" fill="#FFB8B8"/>
<path d="M192.416 222.353H188.712L186.951 208.048L192.416 208.048L192.416 222.353Z" fill="#FFB8B8"/>
<path d="M186.067 221.293H193.209V225.797H181.57C181.57 224.602 182.044 223.457 182.887 222.612C183.731 221.768 184.874 221.293 186.067 221.293Z" fill="#2F2E41"/>
<path d="M206.819 221.305L203.133 221.669L199.979 207.605L205.419 207.069L206.819 221.305Z" fill="#FFB8B8"/>
<path d="M200.397 220.874L207.505 220.173L207.946 224.654L196.362 225.797C196.305 225.208 196.363 224.614 196.534 224.048C196.706 223.482 196.987 222.956 197.362 222.498C197.736 222.041 198.197 221.663 198.718 221.384C199.239 221.105 199.809 220.932 200.397 220.874Z" fill="#2F2E41"/>
<path d="M193.447 123.768C197.544 123.768 200.866 120.442 200.866 116.338C200.866 112.235 197.544 108.908 193.447 108.908C189.349 108.908 186.027 112.235 186.027 116.338C186.027 120.442 189.349 123.768 193.447 123.768Z" fill="#FFB8B8"/>
<path d="M187.885 219.46C187.566 219.461 187.258 219.349 187.014 219.144C186.77 218.94 186.606 218.655 186.551 218.341C184.634 207.685 178.369 172.842 178.219 171.877C178.215 171.855 178.214 171.832 178.214 171.81V169.212C178.214 169.117 178.243 169.025 178.298 168.948L179.126 167.787C179.165 167.731 179.217 167.685 179.277 167.652C179.337 167.62 179.403 167.601 179.472 167.598C184.191 167.376 199.645 166.727 200.392 167.661C201.142 168.6 200.877 171.445 200.816 172.005L200.819 172.064L207.762 216.532C207.817 216.886 207.729 217.248 207.519 217.539C207.309 217.83 206.994 218.026 206.64 218.085L202.304 218.801C201.981 218.853 201.65 218.787 201.371 218.615C201.093 218.443 200.885 218.177 200.785 217.865C199.444 213.573 194.947 199.134 193.388 193.547C193.378 193.512 193.356 193.481 193.325 193.461C193.295 193.441 193.258 193.432 193.221 193.438C193.185 193.443 193.152 193.461 193.128 193.489C193.104 193.517 193.091 193.552 193.092 193.589C193.17 198.915 193.358 212.503 193.423 217.196L193.43 217.702C193.433 218.044 193.307 218.375 193.078 218.629C192.849 218.883 192.534 219.042 192.193 219.074L188.012 219.454C187.969 219.458 187.927 219.46 187.885 219.46Z" fill="#2F2E41"/>
<path d="M188.738 126.69C187.443 127.461 186.668 128.877 186.224 130.319C185.401 132.987 184.905 135.746 184.748 138.535L184.279 146.884L178.462 169.019C183.503 173.29 186.411 172.32 193.197 168.826C199.984 165.331 200.759 169.991 200.759 169.991L202.116 151.157L204.055 130.576C203.62 130.051 203.127 129.577 202.586 129.162C200.794 127.766 198.709 126.796 196.488 126.325C194.268 125.854 191.969 125.893 189.766 126.441L188.738 126.69Z" fill="#64177D"/>
<path d="M186.849 152.539C187.005 152.597 187.157 152.669 187.302 152.751L200.699 146.037L200.921 142.399L206.447 142.017L206.743 150.31L188.84 156.239C188.694 156.867 188.361 157.435 187.884 157.869C187.407 158.302 186.81 158.58 186.172 158.665C185.534 158.75 184.885 158.639 184.311 158.346C183.738 158.053 183.267 157.592 182.962 157.024C182.656 156.457 182.531 155.81 182.601 155.169C182.672 154.528 182.936 153.924 183.358 153.437C183.78 152.95 184.34 152.603 184.964 152.443C185.587 152.282 186.245 152.316 186.849 152.539Z" fill="#FFB8B8"/>
<path d="M203.958 130.67C207.254 131.835 207.835 144.457 207.835 144.457C203.957 142.321 199.304 145.816 199.304 145.816C199.304 145.816 198.334 142.515 197.171 138.244C196.82 137.042 196.778 135.771 197.049 134.549C197.32 133.327 197.895 132.193 198.722 131.254C198.722 131.254 200.662 129.504 203.958 130.67Z" fill="#64177D"/>
<path d="M200.099 118.303C199.175 117.563 197.914 118.909 197.914 118.909L197.174 112.243C197.174 112.243 192.552 112.798 189.594 112.058C186.636 111.319 186.174 114.743 186.174 114.743C186.021 113.36 185.99 111.966 186.081 110.577C186.266 108.911 188.67 107.245 192.922 106.134C197.174 105.023 199.392 109.837 199.392 109.837C202.351 111.318 201.023 119.044 200.099 118.303Z" fill="#2F2E41"/>
</g>
<defs>
<clipPath id="clip0_7_368">
<rect width="225" height="226" fill="white"/>
</clipPath>
</defs>
</svg>
